<?xml version="1.0" encoding="utf-8"?>
<!-- Generator: Adobe Illustrator 21.1.0, SVG Export Plug-In . SVG Version: 6.00 Build 0)  -->
<svg version="1.1" id="Calque_1" xmlns="http://www.w3.org/2000/svg" xmlns:xlink="http://www.w3.org/1999/xlink" x="0px" y="0px"
	 viewBox="0 0 432 432" style="enable-background:new 0 0 432 432;" xml:space="preserve">
<style type="text/css">
	.st0{fill:#1B1B1B;}
	.st1{fill:#746458;}
	.st2{fill:#C1944E;}
	.st3{fill-rule:evenodd;clip-rule:evenodd;fill:#C1944E;}
	.st4{fill:#020203;}
	.st5{fill:#92AA3C;}
	.st6{fill:#A67D52;}
	.st7{fill:#C69C6C;}
	.st8{fill:#E7E6E6;}
	.st9{fill:#B83A44;}
	.st10{fill:#78716A;}
	.st11{fill:#343434;}
	.st12{fill:#AC2F39;}
	.st13{fill:#B4B4B4;}
	.st14{fill:#BA9BC9;}
	.st15{fill:#CA9685;}
	.st16{fill:#99A5AF;}
	.st17{fill:#6B897C;}
	.st18{fill:#718AA5;}
	.st19{fill:#B28E81;}
	.st20{fill:#808181;}
	.st21{fill:#AD8963;}
	.st22{fill:#CDCCCC;}
	.st23{fill:#CC9485;}
	.st24{fill:#A192B1;}
	.st25{fill:#758971;}
	.st26{fill:#97A8B2;}
	.st27{fill:#5B6876;}
	.st28{fill:#7A8F44;}
	.st29{fill:#30354C;}
	.st30{fill:#6D798D;}
	.st31{fill:#946277;}
	.st32{fill:#4E4D4D;}
	.st33{fill:#D59985;}
	.st34{fill:#975B5D;}
	.st35{fill:#566567;}
	.st36{fill:#BBCC53;}
	.st37{fill:#A9807A;}
	.st38{fill:#676767;}
	.st39{fill:#BF8B7B;}
	.st40{fill:#743F2F;}
	.st41{fill:#C29347;}
	.st42{fill-rule:evenodd;clip-rule:evenodd;fill:#C29347;}
	.st43{fill:#BF924C;}
	.st44{fill:#D39A46;}
	.st45{fill:#476FA1;}
	.st46{fill:#BF694C;}
	.st47{fill:#934735;}
	.st48{fill:#F39A94;}
	.st49{fill:#F7BDB9;}
	.st50{fill:#2B2525;}
	.st51{fill:#DAB0B3;}
	.st52{fill:#8E6568;}
	.st53{fill:#BD684F;}
	.st54{fill:#EAAA63;}
	.st55{fill:#6D8FB0;}
	.st56{fill:#E99C4F;}
	.st57{fill:#EB8563;}
	.st58{fill:#F39149;}
	.st59{fill:#B56955;}
	.st60{fill:#B73736;}
	.st61{fill:#D8AD74;}
	.st62{fill:#C07A41;}
	.st63{fill:#F9B03D;}
	.st64{fill:#C1292E;}
	.st65{fill:#A8A1CF;}
	.st66{fill:#F8C6CC;}
	.st67{fill:#AE748E;}
	.st68{fill:#738998;}
	.st69{fill:#5B856E;}
	.st70{fill:#32353E;}
	.st71{fill:#537791;}
	.st72{fill:#3C3C3A;}
	.st73{fill:#823231;}
	.st74{fill:#C19446;}
	.st75{fill:#CDA372;}
	.st76{fill:#C26647;}
	.st77{fill:#B16F59;}
	.st78{fill:#823D26;}
	.st79{fill:#C7AA72;}
	.st80{fill:#A46B75;}
	.st81{fill:#688698;}
	.st82{fill:#C1949E;}
	.st83{fill:#7CA991;}
	.st84{fill:#758F5E;}
	.st85{fill:#908E60;}
	.st86{fill:#4C4B3D;}
	.st87{fill:#4E5E6E;}
	.st88{fill:#C1BD99;}
	.st89{fill:#DEE3B1;}
	.st90{fill:#ADA6AD;}
	.st91{fill:#90535D;}
	.st92{fill:#59493C;}
	.st93{fill:#009245;}
	.st94{fill:#3B8E5F;}
	.st95{fill:#82A0B3;}
	.st96{fill:#974B4B;}
	.st97{fill:#FFFFFF;}
	.st98{fill:#D7A564;}
	.st99{fill:#C78859;}
	.st100{fill:#76ABBC;}
	.st101{fill:#58A2B3;}
	.st102{fill:#797AA5;}
	.st103{fill:#B38F6E;}
	.st104{fill:#739AA8;}
	.st105{fill:#CD9C8C;}
</style>
<g>
	<g>
		<g>
			<path class="st26" d="M174.7,186.9c3-0.8,5.8-1.6,8.7-2.5c-0.1-0.3-0.2-0.6-0.3-0.9c-3.6-8.1-7.3-16.1-10.8-24.2
				c-4.3-9.9-8.9-19.7-13.4-29.5c-1.6-3.5-3.3-6.9-5-10.3c-0.3-0.6-0.5-1.1-0.7-1.7c-0.4-1.2-0.1-2.2,0.8-2.8c1-0.7,2.2-0.7,3.1,0
				c0.5,0.4,1,1,1.4,1.5c0.5,0.8,1,1.6,1.4,2.4c7,14,14,28.1,20.4,42.5c4.9,11.1,9.6,22.3,13.6,33.8c1.1,3.2,2.4,6.4,3.6,9.6
				c0.2,0.5,0.3,0.9,0.5,1.4c0.4,1.3,0,2.4-1.1,2.9c-1,0.5-2.3,0.2-3.1-0.9c-0.4-0.5-0.7-1.1-0.9-1.7c-1.2-2.8-2.3-5.6-3.5-8.3
				c-1.4-3.3-2.9-6.6-4.3-9.9c-0.1-0.1-0.1-0.3-0.2-0.4c-3,0.5-5.8,1.4-8.8,2.4c0.2,0.5,0.3,0.9,0.5,1.3c2,4.8,4,9.5,6,14.3
				c0.2,0.5,0.4,0.9,0.5,1.4c0.3,1.2-0.2,2.5-1.4,3c-1.1,0.6-2.6,0.2-3.4-0.7c-0.4-0.5-0.7-1.1-1-1.7c-2.6-5.1-4.8-10.3-7.2-15.4
				c-3.2-7.1-6.6-14.2-10-21.3c-4.7-9.7-9.5-19.3-14.2-28.9c-1.6-3.3-3.2-6.7-4.7-10.1c-0.4-0.9-0.7-1.8-1-2.7
				c-0.3-1-0.2-1.9,0.6-2.7c1.3-1.3,2.7-1.3,3.9,0.1c0.7,0.8,1.3,1.7,1.9,2.6c3.6,5.8,6.7,11.9,9.8,18c5.4,10.6,10.4,21.3,15.1,32.2
				c0.9,2,1.6,4,2.5,6C174.3,186.1,174.5,186.5,174.7,186.9z"/>
			<path class="st26" d="M226.8,197.4c0.4,1.2,0.9,2.4,1.2,3.6c0.3,1,0.6,2,0.7,3c0.1,0.6,0,1.2-0.1,1.7c-0.1,0.4-0.4,0.8-0.8,1.1
				c-1.5,1.1-4.1,0.6-5-1c-0.3-0.6-0.6-1.3-0.8-2c-1.5-5.5-2.9-11.1-4.5-16.5c-2.1-7-4.3-13.9-6.4-20.9
				c-3.6-11.6-7.3-23.3-10.9-34.9c-1-3.3-1.8-6.6-2.3-10c-0.4-2.7-0.4-5.4,0.4-8c1.7-6.2,7.5-9.4,13.7-7.5c2.3,0.7,4.3,2,6.2,3.6
				c2.4,2.1,4.3,4.6,5.9,7.3c3.1,5.1,5.5,10.6,7.6,16.2c2.2,5.8,3.8,11.7,4.6,17.8c1.1,8.7,0.2,17-4.1,24.8c-2,3.7-4.6,6.9-7.9,9.4
				c-0.1,0.1-0.2,0.2-0.4,0.4c1.2,1.4,2.3,2.8,3.5,4.1c4.1,4.5,8.3,9.1,12.9,13.1c0.3,0.2,0.5,0.5,0.7,0.8c0.6,0.8,0.5,1.7-0.1,2.5
				c-0.6,0.8-1.3,1-2.2,0.7c-0.5-0.2-1-0.4-1.5-0.7c-3.5-2.1-6.6-4.8-9.4-7.7c-0.3-0.3-0.5-0.6-0.7-0.9
				C227,197.2,226.9,197.3,226.8,197.4z M222.2,181.9c0.8-0.7,1.5-1.3,2-1.9c2.8-2.8,4.8-6.1,6.3-9.7c2.7-6.4,3-13.1,2-19.9
				c-0.8-5.6-2.3-11.1-4.3-16.4c-1.8-4.9-4-9.6-6.5-14.2c-1.5-2.6-3.2-5-5.3-7.1c-1.6-1.5-3.3-2.8-5.4-3.4c-3.3-1-6.4,0-8.2,2.7
				c-0.4,0.6-0.5,1.2-0.3,1.9c0.9,3,1.9,6,2.7,9c5.2,18.1,10.4,36.1,15.5,54.2C221.2,178.6,221.7,180.1,222.2,181.9z"/>
			<path class="st26" d="M174.6,113.6c8.5,22.2,17,44.3,25.5,66.5c1.3-0.2,2.6-0.5,3.8-0.6c1.7-0.2,3.4-0.3,5.1-0.4
				c0.4,0,0.8,0,1.2,0.1c1,0.2,1.6,0.9,1.6,1.8c0,0.9-0.7,1.6-1.7,1.7c-1.3,0.1-2.5,0.1-3.8,0.2c-1.5,0.2-3,0.4-4.7,0.7
				c2.6,6.7,5.3,13.2,8,19.8c1.1-0.2,2.2-0.3,3.3-0.5c0.9-0.1,1.8-0.3,2.8-0.3c0.6,0,1.2,0.1,1.8,0.4c0.7,0.3,1,1,0.9,1.7
				c-0.1,0.8-0.6,1.2-1.4,1.4c-0.1,0-0.3,0.1-0.5,0.1c-2.7,0.4-5.4,0.7-8,1.1c-2.9,0.4-4.8-0.5-6-3.1c-1-2.2-1.9-4.6-2.8-6.9
				c-3.5-9-7.1-17.9-10.6-26.9c-6.2-16-12.2-32-18.4-48c-0.6-1.5-1.1-3.1-1.6-4.7c-0.8-2.7-0.1-4.5,2.2-6.1c2.2-1.5,4.6-2.6,7-3.6
				c1.1-0.5,2.2-0.9,3.4-1.2c0.4-0.1,0.9-0.1,1.4-0.1c0.6,0,1.1,0.3,1.4,0.9c0.2,0.5,0,1.1-0.6,1.6c-0.4,0.3-0.8,0.5-1.2,0.7
				c-1.6,0.8-3.3,1.5-4.9,2.3C176.6,112.6,175.6,113.1,174.6,113.6z"/>
			<path class="st26" d="M123.1,144c-0.7,0.5-1.3,0.9-1.9,1.3c-0.8,0.6-1.6,1.2-2.5,1.7c-0.8,0.5-1.3,0.4-1.8-0.1
				c-0.5-0.5-0.5-1.2-0.1-1.9c0.2-0.3,0.4-0.6,0.6-0.8c1-1,2-2,3.2-2.8c3.8-2.7,7.9-4.9,12.2-6.8c0.7-0.3,1.4-0.5,2.1-0.4
				c1.4,0.2,1.9,1.3,1,2.4c-0.4,0.5-0.9,0.9-1.4,1.1c-1.2,0.6-2.4,1.1-3.6,1.7c-0.3,0.2-0.7,0.4-1,0.6c0.1,0.2,0.2,0.4,0.3,0.6
				c7.3,13.2,14.7,26.5,22.4,39.5c4.5,7.5,8.9,15,12.9,22.8c0.8,1.5,1.4,3,2,4.5c0.6,1.6,0.1,2.8-1.2,3.7c-1.4,0.9-2.8,0.8-4-0.5
				c-0.9-0.9-1.6-2-2.3-3c-5.6-8.3-10.7-16.8-15.7-25.4c-6.6-11.4-13.1-22.8-19.3-34.4C124.4,146.5,123.7,145.3,123.1,144z"/>
			<path class="st26" d="M143.5,206.7c-3.6,1.5-7.1,3-10.7,4.5c0.1,0.2,0.2,0.5,0.4,0.7c0.8,1.3,1.7,2.5,2.5,3.8
				c0.4,0.6,0.7,1.2,0.9,1.9c0.2,0.4,0.1,0.9-0.3,1.3c-0.4,0.4-1,0.4-1.4,0.1c-0.6-0.4-1.2-0.9-1.7-1.4c-0.9-1.1-1.8-2.3-2.7-3.5
				c-2.7-3.8-5-7.9-7.3-12c-3.5-6.4-7.2-12.8-10.2-19.5c-1.7-3.9-3.5-7.8-4.8-11.9c-0.6-2-1.2-4-1.1-6.1c0-0.7,0.1-1.5,0.3-2.2
				c0.7-2.3,2.6-3.3,4.9-2.6c0.9,0.3,1.8,0.7,2.6,1.3c1.5,1.1,3,2.2,4.3,3.5c3.9,3.6,7.3,7.6,10.3,11.9c8,11.3,15.8,22.7,23,34.5
				c0.3,0.5,0.6,1.1,0.8,1.7c0.3,0.8,0.1,1.4-0.4,2c-1.1,1.2-3.1,1.2-4.2,0c-0.4-0.5-0.8-1-1.1-1.6c-1.3-1.9-2.5-3.8-3.8-5.7
				C143.7,207.1,143.6,206.9,143.5,206.7z M110.2,165.2c0.1,0.8,0.2,1.6,0.4,2.3c0.7,3.1,2,6,3.2,8.9c4.8,10.7,10.6,20.8,16.5,30.9
				c0.1,0.2,0.3,0.4,0.5,0.6c3.6-1.4,7.2-2.7,10.6-4.5c-0.2-0.4-0.4-0.7-0.6-1c-7.5-11.1-15.7-21.7-24.4-31.9
				c-1.3-1.6-2.8-3-4.2-4.5C111.7,165.7,111.1,165.2,110.2,165.2z"/>
			<path class="st26" d="M119.4,217c2,0.5,3.8,1,5.7,1.3c1.5,0.2,3.1,0.3,4.6,0.3c1.2,0,1.9,0.4,2,1.5c0.2,1.1-0.4,1.9-1.5,2.1
				c-1.5,0.4-3,0.5-4.5,0.4c-0.3,0-0.7-0.1-1.2-0.1c0.3,0.4,0.5,0.7,0.6,0.9c0.6,0.9,0.4,2-0.3,2.8c-0.7,0.8-1.6,0.9-2.6,0.4
				c-0.5-0.3-1-0.7-1.5-1.1c-4.2-3.6-8.4-7.2-12.5-10.8c-4-3.5-7.9-7.1-11.8-10.8c-1.9-1.8-3.5-3.8-5.1-5.9
				c-1.5-2.1-2.5-4.4-2.9-6.9c-0.4-2.7-0.2-5.3,1.7-7.5c1.3-1.4,2.8-2.2,4.7-2.4c2.7-0.3,5.2,0.3,7.5,1.6c1.4,0.8,2.7,1.7,3.9,2.7
				c5.8,4.9,10.1,11,12.8,18.2C120.9,208.5,121.1,211.9,119.4,217z M116.4,214.7c0.1-0.5,0.2-0.8,0.3-1.2c0.5-2.2,0.3-4.5-0.4-6.6
				c-2.5-8-7-14.5-13.7-19.6c-1.1-0.8-2.3-1.4-3.5-1.9c-1.3-0.6-2.7-0.7-4.1-0.5c-2.4,0.5-3.6,2.2-3,4.6c0.4,1.5,1,3,2,4.1
				c1.8,2.1,3.5,4.2,5.5,6.1c5.3,4.9,10.8,9.7,16.2,14.6C115.9,214.4,116.1,214.5,116.4,214.7z"/>
		</g>
		<g>
			<path class="st27" d="M249.8,128.5c0.8,0.3,1.4,0.5,2,0.7c4.3,2,6.7,5.3,7,10c0.2,3.8-1.6,6.7-4.6,8.9c-3.1,2.2-6.6,3.2-10.5,2.9
				c-0.9-0.1-1.5-0.5-1.8-1.2c-0.4-0.8-0.7-1.6-0.9-2.5c-1.2-5.4-2.4-10.8-3.5-16.2c-0.9-4.5-1.5-9.1-2.2-13.6
				c-0.4-2.7-0.7-5.5-0.6-8.3c0-1,0.2-2.1,0.3-3.1c0.6-3.1,2.5-5.1,5.2-6.4c2-0.9,4.1-1.5,6.3-1.4c2.6,0.1,4.9,1,6.7,2.9
				c2.3,2.3,3.5,5.1,4,8.2c1.2,7.2-1,13.3-6.4,18.2C250.5,127.9,250.2,128.2,249.8,128.5z M243.3,128.5c0.5-0.3,0.9-0.4,1.1-0.7
				c1.3-1.2,2.8-2.4,4-3.7c1.7-1.9,2.8-4.1,3.2-6.6c0.5-3.1,0.3-6.2-0.5-9.2c-0.4-1.6-1.2-3.1-2.3-4.4c-1.3-1.4-2.7-1.7-4.5-1
				c-2,0.8-3,2.4-3.2,4.5c-0.2,1.6-0.2,3.3-0.1,5c0.4,3.5,0.9,7,1.4,10.6C242.6,124.7,243,126.5,243.3,128.5z M244.3,132.1
				c0,0.2-0.1,0.3,0,0.4c0.5,2.6,0.9,5.2,1.4,7.7c0.4,1.7,0.9,3.3,1.5,5c0.3,1,0.5,1.1,1.6,0.7c1.4-0.4,2.6-1.1,3.7-2
				c1.3-1.1,2.1-2.5,2.1-4.2c0-1.1-0.2-2.2-0.6-3.1c-0.8-1.9-2.1-3.5-4-4.2C248,131.6,246.1,131.8,244.3,132.1z"/>
			<path class="st27" d="M269.3,130c1,0,2.1,0,3.1,0c1.7,0,3.4,0.1,5.1,0.2c0.3,0,0.7,0,1,0.1c1,0.3,1.6,1.1,1.6,2
				c0,0.9-0.5,1.7-1.5,2c-0.6,0.2-1.2,0.3-1.8,0.3c-2.1,0.1-4.2,0.1-6.4,0.2c-0.2,0-0.4,0-0.7,0.1c0,0.2,0,0.4,0,0.6
				c0.4,2.7,0.7,5.4,1.2,8.1c0.4,2.2,1.1,2.6,3.3,2.6c1.3,0,2.5,0,3.8,0c0.4,0,0.8,0,1.1,0.1c0.7,0.2,1.1,0.6,1.3,1.3
				c0.1,0.7-0.1,1.4-0.7,1.8c-0.4,0.2-0.8,0.4-1.3,0.5c-0.8,0.1-1.7,0.2-2.5,0.1c-2.1-0.1-4.2-0.4-6.3-0.6c-0.3,0-0.7-0.2-1-0.3
				c-2.2-0.7-3.5-2.2-3.8-4.5c-0.4-2.9-1-5.9-1.3-8.8c-0.3-2.6-0.5-5.3-0.8-8c-0.6-5.5-1.1-11.1-1.1-16.6c0-2.3,0.2-4.6,0.3-6.9
				c0.1-1.6,0.8-3,1.8-4.2c0.8-0.9,1.8-1.4,2.9-1.5c2.9-0.4,5.8-0.1,8.6,0.7c0.3,0.1,0.7,0.2,1,0.4c0.7,0.4,1.1,1.2,0.9,2
				c-0.2,0.8-0.9,1.3-1.8,1.3c-1.3,0-2.5-0.1-3.8-0.1c-1.2,0-2.4,0-3.5,0.5C267.6,105.3,268.7,127.9,269.3,130z"/>
		</g>
		<g>
			<path class="st26" d="M350.1,169.3c-0.3,1-0.6,1.8-0.8,2.6c-0.5,1.5-1.1,3-2,4.3c-1.5,2.1-3.4,2.2-5.2,0.4
				c-1.4-1.4-2.1-3.2-2.5-5.1c-0.4-2.1-0.7-4.3-0.8-6.4c0-4,0.2-8,0.4-11.9c0-1.3,0.1-2.6,0.1-3.9c0-0.2-0.1-0.4-0.1-0.7
				c-0.7,0.4-1.1,0.9-1.4,1.4c-0.9,1.3-1.5,2.8-1.9,4.3c-1.1,3.6-1.5,7.3-1.9,11.1c-0.2,2.4-0.5,4.8-0.7,7.1c0,0.3-0.1,0.7-0.2,1
				c-0.5,1.7-2.2,2.2-3.6,1.1c-0.3-0.2-0.6-0.5-0.9-0.8c-0.2,1-0.4,1.8-0.6,2.7c-0.3,0.9-0.6,1.8-1,2.6c-1,1.8-2.9,2.3-4.7,1.3
				c-0.7-0.4-1.3-0.9-2-1.4c-0.1,0.8-0.2,1.6-0.3,2.4c-0.2,2.4-0.6,4.8-1.4,7c-0.3,0.9-0.7,1.8-1.2,2.6c-1,1.6-2.7,1.9-4.4,1
				c-1-0.6-1.7-1.4-2.3-2.4c-1.5-2.2-2.4-4.7-2.9-7.3c-0.8-4.2-1.4-8.4-1.5-12.8c0-2.4-0.1-4.9-0.2-7.3c0-0.9-0.2-1.8-0.3-2.9
				c-0.5,0.5-0.8,0.8-1.1,1.2c-1.4,2-2.2,4.2-2.6,6.6c-0.7,3.4-0.7,6.8-0.9,10.1c0,0.8-0.1,1.7-0.2,2.5c-0.4,2.2-2.4,3.3-4.5,2.4
				c-0.9-0.4-1.7-1-2.4-1.7c-1.4-1.4-2.3-3.1-3.1-4.9c-0.6-1.3-1.1-2.7-1.7-4.2c-0.4,0.8-0.8,1.5-1.1,2.2c-0.4,0.7-0.7,1.5-1.1,2.3
				c0.3,0.3,0.6,0.6,0.9,0.9c2.4,2.5,4.6,5.1,6.1,8.3c1.2,2.4,1.9,4.9,1.7,7.6c-0.1,1.9-0.6,3.7-1.6,5.4c-1.2,1.8-2.8,3.1-5,3.4
				c-1.4,0.2-2.6-0.1-3.8-0.7c-2.1-1.1-3.4-2.8-4.2-4.9c-0.9-2.6-1-5.2-0.8-7.9c0.2-1.8,0.4-3.6,0.7-5.6c-1.2-1-2.6-2.1-4.1-3.3
				c-0.2,1.9-0.3,3.6-0.5,5.3c-0.3,2.6-0.7,5.3-1.2,7.9c-0.2,0.9-0.5,1.8-0.9,2.6c-1.3,2.5-4,3.5-6.7,2.6c-1.5-0.5-2.7-1.5-3.9-2.5
				c-1.7-1.6-2.9-3.6-3.9-5.7c-0.4-0.8-0.7-1.6-1.2-2.6c-0.5,0.9-0.9,1.8-1.3,2.6c-0.5,0.8-0.9,1.6-1.5,2.4
				c-0.6,0.8-1.2,1.5-1.8,2.4c0.6,0.1,1.1,0.2,1.6,0.3c7.5,1.1,14.2,8.3,15.2,15c0.2,1.5,0.3,2.9-0.1,4.4c-0.9,3.8-4.2,5.9-8.1,5.1
				c-1.7-0.3-3.2-1-4.6-1.9c-3-1.8-5.5-4.1-7.8-6.7c-4.2-4.9-7.1-10.5-9.3-16.6c-2.7-7.3-4.1-14.9-3.8-22.7c0.1-3.2,0.6-6.3,1.8-9.3
				c0.6-1.4,1.4-2.8,2.5-3.9c2.2-2.4,5.5-3.2,8.4-2c2.6,1.1,4,3.2,4.7,5.8c0.5,1.9,0.3,3.8,0.2,5.8c-0.2,2.1-0.6,4.1-1.4,6.1
				c-1.4,3.6-3.6,6.7-7,8.8c0.6,3.6,1.7,7.1,3.2,10.6c0.4-0.3,0.7-0.6,1-0.8c2.3-2.3,4.1-4.9,5.6-7.8c0.8-1.6,1.2-3.1,0.9-4.8
				c-0.3-1.7-0.2-3.5,0.3-5.2c0.2-0.8,0.6-1.6,1.1-2.2c1.3-1.6,3.4-1.7,4.8-0.2c0.6,0.7,1.1,1.5,1.4,2.3c1,2.4,1.3,5,1.6,7.6
				c0.3,1.9,0.7,3.8,1.2,5.7c0.3,1.4,1,2.6,1.9,3.7c0.3,0.3,0.6,0.6,1.1,1.1c0.3-0.6,0.6-1,0.8-1.4c1.2-2.7,1.7-5.5,2-8.4
				c0.2-1.6,0.3-3.2,0.5-4.8c0.1-0.7-0.1-1.1-0.7-1.5c-1.6-1.3-3.1-2.7-4.4-4.3c-1.8-2.2-2.8-4.8-2.9-7.7c0-2.8,1.1-5,3.2-6.8
				c1.9-1.6,4-1.9,6.3-1.1c2.3,0.8,4.2,2.4,5.4,4.5c0.3,0.6,0.5,1.4,0.6,2.1c0.1,0.6-0.1,1.2-0.7,1.5c-0.6,0.3-1.1,0-1.6-0.4
				c-1-0.8-1.9-1.7-2.9-2.5c-0.6-0.4-1.3-0.7-2-0.9c-1-0.3-1.4,0.1-1.4,1.2c0,1,0.4,1.9,1,2.7c0.8,0.9,1.6,1.9,2.6,2.7
				c2.5,2.1,5,4.2,7.6,6.3c0.1,0.1,0.2,0.1,0.3,0.1c0.8-1.6,1.6-3.2,2.5-4.7c0.9-1.4,1.2-2.8,0.7-4.4c-1-3.9-1.3-8-1.7-12
				c-0.7-6.7-0.9-13.5-0.7-20.3c0.2-5,0.4-10,1.6-14.9c0.6-2.4,1.3-4.8,2.5-7.1c0.7-1.3,1.6-2.4,2.7-3.3c2.5-1.9,5.1-2.1,7.8-0.7
				c1.9,1,3.3,2.5,4.3,4.3c1.7,3,2.4,6.2,2.6,9.5c0.1,2.7-0.3,5.3-0.7,7.9c-0.9,5.8-2.1,11.5-3.8,17.2c-1.5,5-3.6,9.7-6,14.3
				c-0.2,0.4-0.5,0.9-0.4,1.4c0.6,2.9,1.2,5.7,2.1,8.6c0.2-0.9,0.3-1.7,0.5-2.6c0.5-2.8,1.3-5.6,2.6-8.1c0.8-1.6,1.7-3.1,3.2-4.2
				c2.1-1.6,4.7-1.4,6.4,0.7c0.5,0.6,1,1.3,1.3,2.1c0.5,1.4,0.9,2.8,1.2,4.2c0.6,3.6,0.7,7.2,0.7,10.9c0,3.2,0.1,6.4,0.3,9.6
				c0.1,1.6,0.4,3.3,0.7,4.9c0,0.3,0.2,0.6,0.3,0.9c0.1,0,0.2,0,0.2,0c0.2-0.8,0.4-1.5,0.5-2.3c0.5-3.7,1.1-7.4,1.6-11.1
				c0-0.4,0-0.8-0.1-1.1c-1.2-3.7-1.5-7.5-1.5-11.3c0-1.2,0.3-2.5,0.6-3.7c0.2-0.7,0.6-1.3,1.1-1.8c1.1-1.1,2.7-0.9,3.4,0.4
				c0.4,0.7,0.7,1.5,0.8,2.3c0.3,2.4,0.4,4.8,0.7,7.1c0.3,2.6,0.7,5.1,1.2,7.7c0.2,1,0.5,1.9,1.2,2.9c0.3-0.9,0.6-1.5,0.8-2.2
				c0.4-1.9,0.8-3.8,1.1-5.7c0.1-0.4,0-0.8-0.1-1.1c-0.7-3.1-1.2-6.3-0.9-9.5c0.1-1.2,0.2-2.4,0.5-3.6c0.1-0.7,0.4-1.3,0.8-1.9
				c1.1-1.7,3.3-1.6,4.2,0.3c0.4,1,0.6,2.1,1,3.2c0.1-0.5,0.2-0.9,0.3-1.3c0.4-2.2,1-4.3,1.9-6.3c0.6-1.4,1.4-2.7,2.5-3.7
				c0.6-0.6,1.3-1.1,2.1-1.4c2.1-1,4.2-0.4,5.5,1.6c0.7,1,1.1,2.2,1.2,3.5c0.5,3.4,0.4,6.8,0.2,10.2c-0.3,4.5-0.9,8.9-0.8,13.4
				c0,0.5,0.1,1.1,0.1,1.6c0,0.2,0.1,0.3,0.2,0.7c0.2-0.4,0.4-0.6,0.5-0.9c0.8-1.9,1.5-3.9,2.3-5.8c0.2-0.5,0.2-0.9,0-1.4
				c-1.5-4-1.3-8,0.4-12c0.5-1.3,1.4-2.4,2.5-3.3c1.5-1.1,3.2-1.4,4.9-0.5c1.2,0.6,2.2,1.4,3.4,2.1c0,0,0.1-0.1,0.3-0.2
				c1.3-1,2.7-1,3.9,0.1c0.7,0.6,1.2,1.4,1.6,2.2c0.7,1.3,0.9,2.8,1.1,4.2c0.6,5,0.4,10-1,14.8c-0.9,3.1-2.5,5.9-4.6,8.4
				c-2.6,3-6,4.6-9.8,5.2c-2.4,0.4-4.8,0.5-7.3,0.3c-2.8-0.2-5.7-0.1-8.6-0.1c-1.8,0-3.4,0.4-5.1,1c-1.9,0.6-3.2,1.8-4.1,3.6
				c-0.3,0.6-0.6,1.2-1,1.7c-0.4,0.6-1,0.9-1.8,0.7c-0.7-0.2-1.1-0.8-1.2-1.7c0-0.3,0-0.6,0-0.9c0.8-3,2.2-5.6,5.1-7.1
				c2-1,4.1-1.4,6.2-1.7c3.4-0.4,6.9-0.1,10.3-0.1c2,0,4,0,5.9-0.3c3.8-0.6,6.6-2.7,8.2-6.3c1.5-3.3,2.5-6.8,2.4-10.5
				c0-0.1,0-0.3-0.2-0.4c-0.1,0.3-0.3,0.7-0.4,1c-0.6,1-1.1,2.2-1.8,3.1c-1.6,2.1-4.1,2.4-6.3,0.9
				C350.7,169.7,350.5,169.6,350.1,169.3z M294.7,154.9c0.1,0,0.2,0,0.2,0c0.1-0.2,0.2-0.4,0.3-0.6c1-2.5,2-5,2.9-7.5
				c3.4-9.2,5-18.7,4.3-28.6c-0.2-2.5-0.9-4.8-2.3-6.8c-0.5-0.6-1.1-1.2-1.7-1.7c-1.5-1-2.8-0.7-3.6,0.9c-0.6,1.2-1,2.4-1.3,3.7
				c-0.9,3.6-1.1,7.3-1.2,11c0,2.4,0.1,4.8,0.2,7.2c0.2,6.4,0.7,12.8,1.7,19.1C294.3,152.7,294.5,153.8,294.7,154.9z M252.3,198.5
				c0.1,0.3,0.1,0.4,0.1,0.5c2.6,4.6,5.7,8.7,9.8,12c0.7,0.5,1.4,1,2.1,1.4c1.2,0.7,1.9,0.3,2-1.1c0.1-0.8-0.1-1.6-0.3-2.4
				c-1-3.8-3.4-6.6-6.7-8.6C257.2,199.1,254.9,198.6,252.3,198.5z M245.6,177.8c0.3-0.3,0.4-0.4,0.5-0.5c3.1-3.4,4.6-7.5,5-12
				c0.1-1.7-0.3-3.3-1.3-4.7c-0.6-0.9-1.4-1.3-2.5-1.2c-1.1,0.2-1.7,0.9-2,1.9c-0.2,0.9-0.4,1.9-0.5,2.8c-0.2,3.5,0,6.9,0.3,10.4
				C245.3,175.6,245.4,176.6,245.6,177.8z M354.2,166.6c1-0.9,1.6-1.5,2-3.1c0.6-2.2,1-4.5,1.4-6.8c0-0.3-0.1-0.6-0.3-0.8
				c-0.8-0.9-1.8-1.5-2.9-1.8c-0.1,0.2-0.3,0.3-0.3,0.4c-0.1,0.2-0.2,0.4-0.3,0.6c-0.9,3-1.4,6-0.8,9.1
				C353.1,165.1,353.4,165.9,354.2,166.6z M284.1,185.5c-0.1,0.2-0.2,0.3-0.2,0.4c-0.2,2-0.4,4,0,6c0.2,1.1,0.6,2.1,1.1,3.1
				c0.3,0.8,1,1.3,1.8,1.6c0.8,0.3,1.1,0.1,1.5-0.7c0.4-0.9,0.3-1.8,0.1-2.7C287.8,190.3,286.2,187.9,284.1,185.5z"/>
			<path class="st26" d="M321.9,148.2c0,2.4-1.9,3.8-4.2,3.9c-2.1,0.1-3.8-1.8-3.8-3.9c0-2.2,1.8-4,4-4
				C320.1,144.2,321.9,146,321.9,148.2z"/>
			<path class="st26" d="M263.7,163.2c0,2.1-1.6,3.9-3.7,3.9c-2.1,0-3.8-1.7-3.9-3.8c0-2.2,1.6-4,3.7-4
				C261.8,159.3,263.7,161.2,263.7,163.2z"/>
		</g>
		<g>
			<path class="st27" d="M113.6,234.5c0,2.9-0.8,5.5-2.3,8c-1,1.7-2,2.2-3.9,1.6c-2.4-0.7-4.8-1.6-7.2-2.5
				c-6.2-2.3-12.4-4.6-18.5-6.9c-0.8-0.3-1.6-0.6-2.4-0.9c-1.4-0.6-2.1-1.6-2.3-3.1c-0.6-4.4,1-7.9,4.6-10.5c1.8-1.3,3.9-1.9,6-2.2
				c7.4-0.8,14.2,1,20.2,5.3c2.5,1.8,4.4,4.2,5.1,7.3C113.4,232,113.5,233.3,113.6,234.5z M109.4,237.4c0.1-0.2,0.2-0.2,0.2-0.3
				c0.8-4,0-7.5-3.3-10.2c-0.7-0.6-1.5-1.2-2.3-1.6c-4.5-2.7-9.4-3.9-14.7-3.6c-1.6,0.1-3.2,0.4-4.7,1.1c-1.5,0.7-2.7,1.9-3.5,3.4
				c-0.5,1-0.4,1.4,0.6,1.9c0.3,0.2,0.7,0.3,1.1,0.5c3.4,1.2,6.7,2.5,10.1,3.6c4.6,1.6,9.1,3.1,13.7,4.6
				C107.6,237,108.6,237.1,109.4,237.4z"/>
			<path class="st27" d="M100,250c1.3,0,2.6-0.1,3.9,0c1.4,0.1,2.2,0.8,2.4,2c0.2,1.2-0.4,2.5-1.6,2.9c-0.9,0.3-1.9,0.6-2.9,0.7
				c-2.6,0.3-5.3,0.5-8,0.7c-3.4,0.3-6.8,0.5-10.2,0.7c-1.6,0.1-3.2,0.1-4.7,0.1c-0.5,0-0.9-0.1-1.4-0.2c-1.5-0.4-2.2-1.3-2.1-2.7
				c0.1-1.6,0.8-2.5,2.3-2.7c1-0.2,2-0.2,3-0.3c4.5-0.3,9.1-0.6,13.6-0.9C96.2,250.1,98.1,250.1,100,250C100,250,100,250,100,250z"
				/>
			<path class="st27" d="M75.9,240.6c1.7,0.1,3.2,0.6,4.7,1.3c0.8,0.4,1.5,1.1,2,1.9c0.1,0.2,0.2,0.4,0.3,0.6
				c0.1,0.6,0.1,1.1-0.5,1.4c-0.5,0.3-1,0.2-1.4-0.1c-1.8-1.4-3.9-1.6-6.1-1.4c-0.3,0-0.7,0.1-1,0.1c-0.3,0-0.7,0-1,0
				c-0.6,0-1.1-0.2-1.3-0.8c-0.3-0.6-0.1-1.2,0.3-1.6c0.5-0.4,1.1-0.9,1.7-1.1C74.3,240.7,75.1,240.7,75.9,240.6z"/>
		</g>
	</g>
	<g>
		<g>
			<path class="st10" d="M111.1,312.6c0.3,1.2,0.5,2.2,0.8,3.2c0.8,3.6,1.2,7.2,1.3,10.9c0.1,5.8-0.2,11.5-1.5,17.2
				c-1.3,5.8-3.6,11.2-7,16.2c-1.2,1.8-2.6,3.3-4.3,4.7c-1.1,0.9-2.3,1.6-3.7,2.1c-3.8,1.2-7.3-0.9-8-4.8c-0.2-1.2-0.3-2.5-0.4-3.7
				c-0.3-5.1-1.7-10-3.5-14.7c-2.1-5.4-4.4-10.8-6.4-16.3c-2.9-7.6-5.2-15.3-6.7-23.2c-1.4-7.4-1.8-14.9-1.3-22.4
				c0.4-5.6,1.8-11,4.1-16.2c0.4-0.8,0.8-1.7,1.3-2.4c0.4-0.5,0.9-1.1,1.5-1.4c1.5-0.8,3.1,0.3,3,2c0,0.6-0.2,1.2-0.4,1.8
				c-2.8,7-3.4,14.4-3.2,21.9c0.3,11.6,3.1,22.7,7,33.5c2.1,6,4.5,11.9,6.7,17.9c1.3,3.6,2.5,7.2,3.2,10.9c0.2,0.9,0.3,1.9,0.5,2.8
				c0.1-2-0.2-4.1-0.5-6.1c-1.3-8.5-3.6-16.8-6-25.1c-2.4-8.4-4.3-16.9-5.7-25.5c-1-6.2-1.5-12.5-1.2-18.8c0.2-3.9,0.5-7.8,1.8-11.5
				c0.4-1.1,0.9-2.1,1.5-3.1c0.3-0.5,0.7-1,1.2-1.3c1.3-0.8,2.8-0.1,2.9,1.4c0,1-0.1,1.9-0.3,2.9c-1.1,5.5-1.4,11-1.2,16.6
				c0.2,4.5,0.5,9,1.3,13.5c1.2,6.8,2.8,13.6,4.7,20.3c1.9,7,3.9,13.9,5.5,20.9c1.4,5.8,2.2,11.8,2,17.8c0,0.5,0,1,0.1,1.6
				c0.2-0.3,0.5-0.7,0.7-1c2.9-4.4,4.5-9.3,5.3-14.6c1.1-7.7,0.7-15.3-0.7-22.9c-0.3-1.8-1-3.6-1.5-5.3c-0.3-1-0.6-2-0.6-3
				c0-2.5,2.3-4.1,4.5-3c3,1.5,5.9,0.9,8.8,0.1c2.3-0.6,4.5-1.6,6.6-2.9c4.5-2.8,9-5.5,13.5-8.3c0.1,0,0.1-0.1,0.3-0.3
				c-1.4,0.2-2.7,0.3-3.9,0.5c-3.2,0.5-6.4,0.9-9.7,0.7c-5.9-0.2-11.5-1.4-16.5-4.6c-6.3-4-10.4-9.6-12.8-16.7
				c-1.2-3.7-2-7.5-2.2-11.5c0-0.6,0-1.3,0.2-2c0.2-0.8,0.6-1.4,1.5-1.6c0.9-0.2,1.6,0.1,2.1,0.9c0.4,0.6,0.6,1.3,0.8,2
				c0.7,2.6,1.3,5.3,2,8c0.3,1,0.7,2,1,3c2.1,5.9,6.1,10.2,11.8,12.9c4.4,2.1,9.1,3.2,14,2.8c3-0.2,5.9-0.6,8.9-0.9
				c0.7-0.1,1.4-0.1,2.1-0.2c0.4,0,0.9-0.1,1.3-0.4c-2.5-0.3-4.9-0.5-7.4-0.8c-4.1-0.5-8.1-1.5-11.9-3.2
				c-9.3-4.2-14.7-11.5-16.7-21.4c-0.2-0.7-0.2-1.5-0.1-2.3c0.1-1.2,0.8-2,1.9-2.2c1-0.2,1.9,0.4,2.4,1.6c0.2,0.4,0.3,0.8,0.4,1.2
				c1.1,4.2,3.1,7.9,6,11.1c3.6,4,8.2,6.4,13.6,7.1c2.2,0.3,4.5,0.4,6.7,0.5c3.8,0.1,7.5,0.4,11.1,1.4c2.4,0.7,4.6,1.7,6.6,3.3
				c1.5,1.2,2.7,2.7,3.4,4.6c1.1,3,0.1,5.6-2.7,7c-1.4,0.7-2.8,1.3-4.3,1.8c-4,1.5-7.8,3.6-11.4,5.8c-2.8,1.8-5.7,3.6-8.5,5.3
				c-4.6,2.8-9.6,4-14.9,3.9C111.6,312.6,111.4,312.6,111.1,312.6z"/>
			<path class="st10" d="M80.6,159.7c-0.8,2.3-1.6,4.6-2.4,7.1c1-0.1,1.9-0.2,2.8-0.3c4.7-0.3,9.4-0.3,13.9,1
				c1.1,0.3,2.1,0.9,3.1,1.4c0.4,0.2,0.8,0.7,1.1,1.2c0.5,0.9,0.1,1.8-0.9,2.1c-0.8,0.2-1.6,0.2-2.4,0.1c-1.9-0.2-3.8-0.5-5.6-0.7
				c-4-0.3-7.9-0.3-11.9,0.2c-1.6,0.2-2.3,0.7-2.7,2.2c-0.3,1.2-0.8,2.2-1.2,3.4c0,0.1,0,0.1,0,0.3c1.5-0.2,3-0.4,4.5-0.4
				c2-0.1,4-0.4,6,0.1c0.6,0.1,1.3,0.4,1.8,0.7c0.8,0.5,1.2,1.3,1.1,2.3c-0.1,0.9-0.7,1.6-1.6,1.8c-0.8,0.2-1.7,0.3-2.5,0.3
				c-0.8,0-1.6-0.1-2.4-0.2c-2.8-0.2-5.6,0-8.4,0.7c-0.3,0.1-0.6,0.3-0.7,0.5c-0.3,1.1-0.6,2.3-0.4,3.5c0.2,1.1,0.8,1.7,1.9,1.9
				c1.6,0.3,3.3,0.4,4.9,0.7c1,0.2,2,0.3,2.9,0.6c1.1,0.3,1.7,1.2,1.6,2.1c-0.1,0.9-0.6,1.6-1.7,1.9c-0.9,0.2-1.7,0.4-2.6,0.5
				c-2.3,0.2-4.6,0.1-6.9-0.5c-3.6-1-5.8-3.7-6-7.4c-0.1-2.1,0.2-4.2,0.8-6.2c1.3-4.1,2.7-8.2,4-12.3c2.2-6.6,4.3-13.2,6.5-19.8
				c1-2.9,2.2-5.7,3.7-8.3c1.1-1.9,2.3-3.6,3.8-5.1c2.8-2.8,6.2-3.9,10.2-3.2c2.4,0.4,4.8,1,7,1.9c1.8,0.7,3.6,1.4,5.4,2.1
				c2,0.7,3.7,1.7,5.4,2.9c0.4,0.3,0.7,0.6,1,1c0.8,1.2,0.3,2.7-1.1,3c-0.6,0.1-1.3,0.2-1.9,0c-1.2-0.3-2.3-0.8-3.5-1.2
				c-3.9-1.5-7.9-3-12-3.9c0,0-0.1,0-0.1,0c-2.7-0.7-4.8,0.1-6.4,2.5c-0.8,1.3-1.7,2.6-2.4,4.1c1-0.1,1.9-0.2,2.8-0.3
				c6-0.5,12,0.2,17.7,2c0.8,0.2,1.6,0.6,2.3,1c0.4,0.2,0.7,0.5,1,0.8c0.6,0.8,0.3,1.8-0.6,2c-0.5,0.1-1,0.1-1.5,0.1
				c-2.4-0.4-4.9-0.9-7.3-1.3c-4.3-0.8-8.7-0.8-13-0.3c-1,0.1-2.1,0.2-3.2,0.3c-0.7,1.9-1.4,3.9-2.1,6c0.4,0,0.7,0,1,0
				c5.7-0.5,11.3-0.3,16.9,1.3c1,0.3,1.9,0.6,2.8,1c0.7,0.4,1.5,0.9,2,1.5c0.9,1,0.3,2.3-1,2.5c-0.7,0.1-1.5,0.1-2.2-0.1
				c-5.5-1.3-11.1-1.8-16.8-1.4C83.6,159.5,82.2,159.6,80.6,159.7z"/>
			<path class="st10" d="M205.5,252.2c0.4-0.4,0.7-0.6,1-0.9c3.3-3.2,5.9-6.8,8.2-10.8c3.4-6.1,6.3-12.5,8.6-19.1
				c1-2.8,2.1-5.6,3.7-8.1c0.4-0.7,0.9-1.3,1.5-1.9c0.3-0.4,0.8-0.6,1.2-0.8c1.1-0.4,2.1,0.3,2.2,1.5c0,0.4,0,0.9-0.2,1.2
				c-2.5,6.4-4.2,13.2-7,19.5c-2.6,5.9-5.4,11.6-9.1,16.9c-0.8,1.2-1.7,2.3-2.6,3.4c-0.2,0.2-0.4,0.5-0.6,0.8
				c1.3-0.2,2.5-0.5,3.5-1.1c1.3-0.7,2.6-1.4,3.8-2.2c7.4-5.2,12.4-12.2,14.9-20.9c1-3.5,1.7-7.1,1.3-10.7c-0.1-1.2-0.3-2.4-0.5-3.7
				c0-0.4,0-0.8,0-1.2c0.1-0.9,0.6-1.6,1.6-1.8c0.9-0.2,1.6,0.1,2.2,0.7c0.3,0.3,0.5,0.7,0.6,1.1c1.3,3.8,1.8,7.7,1,11.8
				c-1.5,8.1-4.6,15.5-9.6,22.1c-3,3.9-6.6,7-10.9,9.4c-4.2,2.3-8.8,3.4-13.6,3.2c-1.2,0-2.3-0.1-3.5-0.3c-2.6-0.4-4.3-2.5-4-5.1
				c0.2-1.5,0.5-3,0.8-4.6c0.8-4.9,1.6-9.9,2.8-14.8c1.1-4.6,2.5-9.1,4.6-13.3c2.2-4.3,5.1-7.8,9.1-10.4c1.2-0.8,2.5-1.4,3.9-1.7
				c0.6-0.1,1.2-0.2,1.8-0.1c0.7,0.1,1.1,0.5,1.3,1.1c0.2,0.6,0,1.2-0.4,1.6c-0.4,0.3-0.8,0.6-1.2,0.9c-4.4,2.7-7.6,6.5-9.7,11.2
				c-1.9,4.4-3.2,8.9-4.3,13.6c-0.9,4.3-1.7,8.5-2.6,12.8C205.5,251.8,205.5,251.9,205.5,252.2z"/>
		</g>
		<g>
			<path class="st26" d="M322.4,130.8c0,3.6-3.8,6.1-7.2,4.7c-2.6-1.1-4.1-4.4-3.3-7.1c1-3.1,4.5-4.4,7.2-2.7c1,0.6,1.9,1.4,2.5,2.5
				C322.1,129,322.4,129.9,322.4,130.8z"/>
			<path class="st26" d="M328.5,123.3c-2.5,0-4.6-2.2-4.6-4.8c0-2.5,2.2-4.7,4.6-4.7c2.5,0,4.6,2.3,4.6,4.9
				C333,121.2,331,123.3,328.5,123.3z"/>
			<path class="st26" d="M331,140.7c-2.5,0-4.5-2-4.5-4.5c0-2.5,2-4.5,4.3-4.5c2.4,0,4.5,2.3,4.5,4.9
				C335.3,138.8,333.4,140.7,331,140.7z"/>
			<path class="st26" d="M317.7,105.4c-2.3,0-4-2.6-3.3-5c0.5-1.7,1.9-2.8,3.5-2.7c1.8,0,3.3,1.3,3.6,3
				C322,103,320.1,105.4,317.7,105.4z"/>
			<path class="st26" d="M324.4,83.5c0-1.9,1.6-3.4,3.4-3.4c1.8,0,3.5,1.7,3.5,3.5c0,1.8-1.6,3.4-3.5,3.4
				C326,87,324.4,85.4,324.4,83.5z"/>
			<path class="st26" d="M313.3,68c0-1.7,1.3-3.1,3-3.2c1.7,0,3.1,1.3,3.2,3c0,1.7-1.4,3.2-3.1,3.2C314.7,71,313.3,69.6,313.3,68z"
				/>
		</g>
	</g>
</g>
</svg>
